<?xml version="1.0" encoding="UTF-8" standalone="no"?>
<!-- Created with Inkscape (http://www.inkscape.org/) -->

<svg
   xmlns:dc="http://purl.org/dc/elements/1.1/"
   xmlns:cc="http://creativecommons.org/ns#"
   xmlns:rdf="http://www.w3.org/1999/02/22-rdf-syntax-ns#"
   xmlns:svg="http://www.w3.org/2000/svg"
   xmlns="http://www.w3.org/2000/svg"
   xmlns:sodipodi="http://sodipodi.sourceforge.net/DTD/sodipodi-0.dtd"
   xmlns:inkscape="http://www.inkscape.org/namespaces/inkscape"
   version="1.1"
   width="100"
   height="100"
   viewBox="0 0 100 100"
   id="Your_Icon"
   xml:space="preserve"
   inkscape:version="0.48.2 r9819"
   sodipodi:docname="airport.svg"><sodipodi:namedview
   pagecolor="#ffffff"
   bordercolor="#666666"
   borderopacity="1"
   objecttolerance="10"
   gridtolerance="10"
   guidetolerance="10"
   inkscape:pageopacity="0"
   inkscape:pageshadow="2"
   inkscape:window-width="1091"
   inkscape:window-height="717"
   id="namedview8"
   showgrid="false"
   inkscape:zoom="2.36"
   inkscape:cx="50"
   inkscape:cy="50"
   inkscape:window-x="0"
   inkscape:window-y="0"
   inkscape:window-maximized="0"
   inkscape:current-layer="Your_Icon" /><metadata
   id="metadata9"><rdf:RDF><cc:Work
       rdf:about=""><dc:format>image/svg+xml</dc:format><dc:type
         rdf:resource="http://purl.org/dc/dcmitype/StillImage" /><dc:title></dc:title></cc:Work></rdf:RDF></metadata><defs
   id="defs7" />
<g
   id="g3762"
   style="fill:#ffffff;fill-opacity:1"><path
     d="M 50,3.25 C 25.561,3.25 5.75,23.061 5.75,47.5 5.75,71.939 25.561,91.75 50,91.75 74.439,91.75 94.25,71.939 94.25,47.5 94.25,23.061 74.439,3.25 50,3.25 z m 6.28125,13.21875 6.8125,0 -8.96875,27.8125 0,0.03125 15.625,0 5.25,-6.5 4.40625,0 -2,9.65625 2,9.71875 -4.40625,0 -5.25,-6.5 -15.59375,0 9.0625,27.84375 -6.96875,0 -15.40625,-27.84375 -19.6875,0 c 0,0 -5.0625,0.0525 -5.0625,-3.1875 0,-3.24 5.0625,-3.1875 5.0625,-3.1875 l 19.65625,0 0,-0.03125 15.46875,-27.8125 z"
     id="path3"
     style="fill:#ffffff;fill-opacity:1;stroke:none" /></g>
<path
   sodipodi:type="arc"
   style="fill:#ffffff;fill-opacity:1;stroke:#5c0084;stroke-width:1.33299994;stroke-miterlimit:4;stroke-opacity:1;stroke-dasharray:none"
   id="path2987"
   sodipodi:cx="50.423729"
   sodipodi:cy="50"
   sodipodi:rx="50.423729"
   sodipodi:ry="50"
   d="M 100.84746,50 A 50.423729,50 0 1 1 0,50 50.423729,50 0 1 1 100.84746,50 z"
   transform="translate(-1.6949126,1.2711869)"
   inkscape:export-filename="/Users/matthewloveless/matthewloveless.github.io/airport.png"
   inkscape:export-xdpi="89.699997"
   inkscape:export-ydpi="89.699997" /><path
   inkscape:connector-curvature="0"
   style="fill:#5c0084;fill-opacity:1;stroke:none"
   id="path2989"
   d="M 46.636249,66.603136 39.039309,52.867285 27.939816,52.726015 C 17.429257,52.592241 16.776887,52.537354 15.644738,51.691559 c -1.614689,-1.206286 -1.614689,-2.939544 0,-4.14583 1.132063,-0.84573 1.784949,-0.900712 12.288135,-1.034814 l 11.09255,-0.141627 7.625114,-13.735491 7.625113,-13.735492 3.07404,0 c 1.69072,0 3.074038,0.146711 3.074038,0.326025 0,0.179314 -1.905886,6.233339 -4.235301,13.45339 -2.329416,7.220051 -4.236196,13.270373 -4.237289,13.445161 -0.0011,0.174788 3.605275,0.317797 8.014149,0.317797 l 8.01614,0 2.471148,-3.158461 c 2.461191,-3.14573 2.479449,-3.15854 4.529801,-3.177966 1.923602,-0.01823 2.043754,0.04304 1.831615,0.933885 -0.124869,0.524364 -0.558526,2.649691 -0.963683,4.722948 -0.698656,3.575179 -0.698894,3.968475 -0.0046,7.627118 0.402618,2.121659 0.836275,4.286586 0.963678,4.81095 0.216601,0.891466 0.09793,0.952123 -1.827,0.933885 -2.050352,-0.01943 -2.06861,-0.03224 -4.529801,-3.177966 l -2.47114,-3.158461 -8.01614,0 c -4.408874,0 -8.016135,0.113567 -8.016135,0.252371 0,0.329028 8.521305,26.555998 8.76344,26.972205 0.101682,0.174789 -1.314584,0.317797 -3.147262,0.317797 l -3.33214,0 -7.596941,-13.735847 z"
   inkscape:export-filename="/Users/matthewloveless/matthewloveless.github.io/airport.png"
   inkscape:export-xdpi="89.699997"
   inkscape:export-ydpi="89.699997" /></svg>