<?xml version="1.0" encoding="utf-8"?>
<!-- Generator: Adobe Illustrator 18.0.0, SVG Export Plug-In . SVG Version: 6.00 Build 0)  -->
<!DOCTYPE svg PUBLIC "-//W3C//DTD SVG 1.1//EN" "http://www.w3.org/Graphics/SVG/1.1/DTD/svg11.dtd">
<svg version="1.1" id="Layer_1" xmlns="http://www.w3.org/2000/svg" xmlns:xlink="http://www.w3.org/1999/xlink" x="0px" y="0px"
	 viewBox="0 0 242 227" enable-background="new 0 0 242 227" xml:space="preserve">
<polygon fill="#FFFFFF" points="40.8,197.1 200.5,197.1 200.5,91.2 130.5,34.7 40.8,95.7 "/>
<g>
	<path fill="#652613" stroke="#FFFFFF" stroke-width="3" stroke-miterlimit="10" d="M222.6,118.4l0-26.7l-27.4-20.4V36.7
		c0-2.9-2.3-5.2-5.1-5.2l-25,0.1c-2.8,0-5,2.3-5,5.2v9.2l-33.6-24.6c-1.9-1.4-4.2-2.1-6.3-2.1c-2.2,0-4.4,0.6-6.3,2.1L17.6,91.7
		l0.1,26.7l15.8,0.1l-0.1,78.9c0,2.9,2.3,5.3,5.2,5.3l162.9,0c2.8,0,5.2-2.4,5.2-5.3l0-79L222.6,118.4z M111.5,188.9v-70.5H69.7
		v70.5l-22.8,0l0.1-85.6l73.3-53.5l73.1,52.9l0,86.2L111.5,188.9z"/>
	<rect x="130.5" y="118.4" fill="#652613" stroke="#FFFFFF" stroke-width="3" stroke-miterlimit="10" width="41.8" height="43"/>
</g>
</svg>
